<svg id="Layer_1" data-name="Layer 1" xmlns="http://www.w3.org/2000/svg" viewBox="0 0 183.86 102.8"><defs><style>.cls-1{fill:#fff;}.cls-1,.cls-2{stroke:#1d1d1b;stroke-miterlimit:10;}.cls-2{fill:#1d1d1b;}</style></defs><title>favicon</title><path class="cls-1" d="M207,113.86c-15,31.7-51.66,52.46-91.37,52.66v0c-38.84.08-74.91-19.07-91.37-49.11C32.78,99.5,48.18,85.07,67.14,75.88l.2-.09a112.81,112.81,0,0,1,48.3-11v0A115.43,115.43,0,0,1,163.72,75l.08,0C182.38,83.59,197.78,97,207,113.86Z" transform="translate(-23.71 -64.24)"/><path class="cls-2" d="M167.71,94.89a52.07,52.07,0,1,1-100.57-19l.2-.11a112.81,112.81,0,0,1,48.3-11v0A115.43,115.43,0,0,1,163.72,75l.08,0A51.81,51.81,0,0,1,167.71,94.89Z" transform="translate(-23.71 -64.24)"/><circle class="cls-1" cx="91.93" cy="36.95" r="12.52"/></svg>