<svg xmlns="http://www.w3.org/2000/svg" viewBox="0 0 401.22 37.58"><defs><style>.cls-1{fill:#1a1a1a;}</style></defs><title>procrastinate</title><g id="Layer_2" data-name="Layer 2"><rect width="401.22" height="37.58"/></g><g id="Layer_1" data-name="Layer 1"><path class="cls-1" d="M13.54,8.59h6.63C27.34,8.57,32,12.13,32,20.19S27.37,32,20.51,32H13.58Zm6.34,19.18c4,0,6.67-2,6.66-7.57s-2.7-7.36-6.68-7.35h-1l0,14.92Z"/><path class="cls-1" d="M35.31,20.18c0-7.66,4.31-12.06,10.63-12.07s10.67,4.4,10.68,12S52.31,32.42,46,32.43,35.32,27.85,35.31,20.18Zm15.87,0c0-4.71-2-7.48-5.23-7.47s-5.21,2.78-5.21,7.49,2,7.68,5.24,7.67S51.19,24.86,51.18,20.16Z"/><path class="cls-1" d="M61,8.51h5.44L72.6,20.16l2.33,5.15h.14c-.25-2.48-.69-5.76-.69-8.53V8.49h5l0,23.46H74L67.88,20.27l-2.33-5.12h-.14c.25,2.58.69,5.72.69,8.49V32h-5Z"/><path class="cls-1" d="M84.76,17C86.92,15.89,88,14.49,88,12.36l-.15-3.1,1.75,2.4a3.21,3.21,0,0,1-1.95.77A2.61,2.61,0,0,1,84.88,9.8a2.72,2.72,0,0,1,2.77-3c2.21,0,3.38,1.73,3.39,4.7,0,3.39-1.67,6-5.11,7.7Z"/><path class="cls-1" d="M100.36,12.9H93.9V8.46l18.22,0v4.45h-6.46l0,19h-5.3Z"/><path class="cls-1" d="M130.18,8.4h8.06c5.16,0,9.33,1.83,9.33,7.53,0,5.52-4.19,8-9.16,8h-2.9v8h-5.3Zm7.91,11.28c2.91,0,4.29-1.31,4.29-3.75s-1.58-3.33-4.45-3.33h-2.44v7.07Z"/><path class="cls-1" d="M151.63,8.37h8.45c5,0,9.06,1.71,9.07,7.29,0,5.39-4.07,7.71-9,7.72H157l0,8.44h-5.31Zm8,10.79c2.79,0,4.28-1.2,4.28-3.51s-1.5-3.09-4.29-3.08h-2.72l0,6.6ZM159.13,22l3.67-3.4,7.51,13.22h-5.94Z"/><path class="cls-1" d="M172.61,20c0-7.66,4.31-12.06,10.64-12.07s10.66,4.4,10.67,12-4.31,12.27-10.64,12.28S172.62,27.63,172.61,20Zm15.87,0c0-4.71-2-7.48-5.23-7.47S178,15.25,178,20s2,7.69,5.24,7.68S188.49,24.64,188.48,19.94Z"/><path class="cls-1" d="M197.23,20.16c0-7.78,5.13-12.3,11.06-12.31a9.85,9.85,0,0,1,7.06,3l-2.79,3.41a5.85,5.85,0,0,0-4.15-1.86c-3.21,0-5.75,2.84-5.74,7.55s2.26,7.62,5.68,7.61a6.15,6.15,0,0,0,4.59-2.2l2.8,3.33a9.65,9.65,0,0,1-7.57,3.45C202.22,32.18,197.25,28.06,197.23,20.16Z"/><path class="cls-1" d="M219.28,8.26h8.45c5,0,9.05,1.71,9.06,7.29,0,5.39-4.06,7.72-9,7.72H224.6l0,8.44h-5.31Zm8,10.79c2.79,0,4.29-1.2,4.28-3.5s-1.5-3.1-4.29-3.09h-2.71v6.6Zm-.53,2.82,3.66-3.4L238,31.69H232Z"/><path class="cls-1" d="M245.42,8.22h6.35l7.4,23.45h-5.61l-3.09-11.88c-.65-2.35-1.28-5.12-1.91-7.56h-.15c-.56,2.47-1.19,5.22-1.83,7.57l-3.07,11.88h-5.42ZM242.93,22l11.29,0v4.13H242.94Z"/><path class="cls-1" d="M260.2,28.69l3-3.64A9.31,9.31,0,0,0,269,27.49c2.21,0,3.29-.87,3.29-2.27s-1.34-1.95-3.39-2.78l-3.05-1.3c-2.43-1-4.74-3-4.74-6.39,0-3.88,3.46-7,8.34-7A10.8,10.8,0,0,1,277,10.81l-2.67,3.35a7.55,7.55,0,0,0-4.87-1.83c-1.83,0-3,.76-3,2.11s1.54,2,3.59,2.77l3,1.2c2.87,1.16,4.66,3.06,4.66,6.38,0,3.89-3.23,7.27-8.82,7.28A12.86,12.86,0,0,1,260.2,28.69Z"/><path class="cls-1" d="M285.58,12.6h-6.46V8.16l18.22,0v4.44h-6.46l0,19h-5.3Z"/><path class="cls-1" d="M301,8.13h5.3l0,23.46H301Z"/><path class="cls-1" d="M311.83,8.11h5.44l6.14,11.66,2.33,5.15h.14c-.25-2.48-.69-5.77-.69-8.53V8.09h5.05l0,23.46h-5.44l-6.14-11.69-2.33-5.12h-.14c.25,2.59.69,5.73.69,8.5v8.32h-5.05Z"/><path class="cls-1" d="M340.14,8.07h6.34l7.41,23.44h-5.61l-3.09-11.87c-.66-2.35-1.29-5.12-1.92-7.57h-.14c-.57,2.48-1.19,5.23-1.84,7.57l-3.06,11.89h-5.42Zm-2.49,13.75,11.29,0v4.12l-11.28,0Z"/><path class="cls-1" d="M358.37,12.49h-6.46V8.05l18.22,0v4.45h-6.46l0,19h-5.3Z"/><path class="cls-1" d="M373.79,8l14.7,0v4.45H379.1v4.71h8V21.6h-8V27l9.76,0v4.45l-15.06,0Z"/></g></svg>